HIERARCHY
ROOT newVegas:Hips
{
	OFFSET 0.000000 96.479958 0.000000
	CHANNELS 6 Xposition Yposition Zposition Xrotation Yrotation Zrotation
	JOINT newVegas:Pelvis
	{
		OFFSET 0.000000 0.000000 0.000000
		CHANNELS 3 Xrotation Yrotation Zrotation
		JOINT newVegas:LeftUpLeg
		{
			OFFSET 18.735201 -5.666702 -4.541200
			CHANNELS 3 Xrotation Yrotation Zrotation
			JOINT newVegas:LeftLeg
			{
				OFFSET -0.021200 -31.938179 0.493100
				CHANNELS 3 Xrotation Yrotation Zrotation
				JOINT newVegas:LeftFoot
				{
					OFFSET 0.021200 -31.938179 -4.336299
					CHANNELS 3 Xrotation Yrotation Zrotation
					JOINT newVegas:LeftToeBase
					{
						OFFSET 0.943001 -26.722000 15.023500
						CHANNELS 3 Xrotation Yrotation Zrotation
						End Site
						{
							OFFSET 0.000000 30.670183 0.000000
						}
					}
				}
				JOINT newVegas:Left_PantLeg
				{
					OFFSET 0.663870 -9.044666 -1.108900
					CHANNELS 3 Xrotation Yrotation Zrotation
					End Site
					{
						OFFSET 1.415995 20.635357 0.000000
					}
				}
			}
		}
		JOINT newVegas:RightUpLeg
		{
			OFFSET -18.735201 -5.666702 -4.541200
			CHANNELS 3 Xrotation Yrotation Zrotation
			JOINT newVegas:RightLeg
			{
				OFFSET 0.018946 -31.938133 0.493100
				CHANNELS 3 Xrotation Yrotation Zrotation
				JOINT newVegas:RightFoot
				{
					OFFSET -0.018946 -31.938126 -4.336299
					CHANNELS 3 Xrotation Yrotation Zrotation
					JOINT newVegas:RightToeBase
					{
						OFFSET -0.943001 -26.722004 15.023500
						CHANNELS 3 Xrotation Yrotation Zrotation
						End Site
						{
							OFFSET 0.000000 30.670187 0.000000
						}
					}
				}
				JOINT newVegas:Right_PantLeg
				{
					OFFSET -0.661674 -9.044716 -1.108900
					CHANNELS 3 Xrotation Yrotation Zrotation
					End Site
					{
						OFFSET -1.415958 20.635269 0.000000
					}
				}
			}
		}
	}
	JOINT newVegas:Spine
	{
		OFFSET 0.000000 10.199997 -0.299500
		CHANNELS 3 Xrotation Yrotation Zrotation
		JOINT newVegas:Spine1
		{
			OFFSET 0.000000 11.900002 -1.516600
			CHANNELS 3 Xrotation Yrotation Zrotation
			JOINT newVegas:Spine2
			{
				OFFSET 0.000000 13.600006 -2.842500
				CHANNELS 3 Xrotation Yrotation Zrotation
				JOINT newVegas:Neck
				{
					OFFSET 0.000000 9.624100 -2.890100
					CHANNELS 3 Xrotation Yrotation Zrotation
					JOINT newVegas:Head
					{
						OFFSET 0.000000 14.068802 -1.351900
						CHANNELS 3 Xrotation Yrotation Zrotation
						JOINT newVegas:Hair_Back
						{
							OFFSET 0.000000 3.231903 -17.524799
							CHANNELS 3 Xrotation Yrotation Zrotation
							End Site
							{
								OFFSET 0.000000 19.849884 0.000000
							}
						}
						JOINT newVegas:Hair_Front
						{
							OFFSET 0.000000 31.260406 4.573800
							CHANNELS 3 Xrotation Yrotation Zrotation
							JOINT newVegas:Hair_Front1
							{
								OFFSET 0.000000 2.284103 11.993300
								CHANNELS 3 Xrotation Yrotation Zrotation
								JOINT newVegas:Hair_Front2
								{
									OFFSET 0.000000 2.284103 11.993300
									CHANNELS 3 Xrotation Yrotation Zrotation
									End Site
									{
										OFFSET 0.000000 12.208862 0.000000
									}
								}
							}
						}
						JOINT newVegas:Jowel
						{
							OFFSET 0.000000 -7.458206 6.864100
							CHANNELS 3 Xrotation Yrotation Zrotation
							End Site
							{
								OFFSET 0.000000 19.849884 0.000000
							}
						}
					}
				}
				JOINT newVegas:LeftShoulder
				{
					OFFSET 15.263000 10.923401 -0.547700
					CHANNELS 3 Xrotation Yrotation Zrotation
					JOINT newVegas:LeftArm
					{
						OFFSET 25.438599 -2.830597 -13.032500
						CHANNELS 3 Xrotation Yrotation Zrotation
						JOINT newVegas:LeftForeArm
						{
							OFFSET 29.960503 0.000000 0.000000
							CHANNELS 3 Xrotation Yrotation Zrotation
							JOINT newVegas:LeftHand
							{
								OFFSET 27.849251 0.000000 0.000000
								CHANNELS 3 Xrotation Yrotation Zrotation
								JOINT newVegas:LeftHandThumb1
								{
									OFFSET 4.487587 -3.305161 6.305391
									CHANNELS 3 Xrotation Yrotation Zrotation
									JOINT newVegas:LeftHandThumb2
									{
										OFFSET 5.480453 -3.164139 3.164143
										CHANNELS 3 Xrotation Yrotation Zrotation
										JOINT newVegas:LeftHandThumb3
										{
											OFFSET 5.159721 -2.978973 2.978967
											CHANNELS 3 Xrotation Yrotation Zrotation
											End Site
											{
												OFFSET 2.494507 5.926697 1.738678
											}
										}
									}
								}
								JOINT newVegas:LeftHandIndex1
								{
									OFFSET 18.578728 -0.527832 5.208049
									CHANNELS 3 Xrotation Yrotation Zrotation
									JOINT newVegas:LeftHandIndex2
									{
										OFFSET 3.192009 0.000000 0.000000
										CHANNELS 3 Xrotation Yrotation Zrotation
										JOINT newVegas:LeftHandIndex3
										{
											OFFSET 3.835129 0.000000 0.000000
											CHANNELS 3 Xrotation Yrotation Zrotation
											End Site
											{
												OFFSET -0.034599 3.816971 0.371180
											}
										}
									}
								}
								JOINT newVegas:LeftHandMiddle1
								{
									OFFSET 18.476105 0.000000 0.000000
									CHANNELS 3 Xrotation Yrotation Zrotation
									JOINT newVegas:LeftHandMiddle2
									{
										OFFSET 3.324875 0.000000 0.000000
										CHANNELS 3 Xrotation Yrotation Zrotation
										JOINT newVegas:LeftHandMiddle3
										{
											OFFSET 4.596550 0.000000 0.000000
											CHANNELS 3 Xrotation Yrotation Zrotation
											End Site
											{
												OFFSET 0.057701 4.578827 0.399218
											}
										}
									}
								}
								JOINT newVegas:LeftHandRing1
								{
									OFFSET 17.732719 0.121887 -4.201567
									CHANNELS 3 Xrotation Yrotation Zrotation
									JOINT newVegas:LeftHandRing2
									{
										OFFSET 2.733170 0.000000 0.000000
										CHANNELS 3 Xrotation Yrotation Zrotation
										JOINT newVegas:LeftHandRing3
										{
											OFFSET 3.178268 0.000000 0.000000
											CHANNELS 3 Xrotation Yrotation Zrotation
											End Site
											{
												OFFSET 0.119102 3.170624 0.185394
											}
										}
									}
								}
								JOINT newVegas:LeftHandPinky1
								{
									OFFSET 15.989624 -0.606689 -7.535461
									CHANNELS 3 Xrotation Yrotation Zrotation
									JOINT newVegas:LeftHandPinky2
									{
										OFFSET 2.538986 0.000000 0.000000
										CHANNELS 3 Xrotation Yrotation Zrotation
										JOINT newVegas:LeftHandPinky3
										{
											OFFSET 2.593102 0.000000 0.000000
											CHANNELS 3 Xrotation Yrotation Zrotation
											End Site
											{
												OFFSET -0.150902 2.584198 0.152708
											}
										}
									}
								}
							}
							JOINT newVegas:Left_Sleeve
							{
								OFFSET 0.267448 -0.649796 0.577675
								CHANNELS 3 Xrotation Yrotation Zrotation
								End Site
								{
									OFFSET 0.000000 15.991241 0.000000
								}
							}
							JOINT newVegas:Left_CapeC
							{
								OFFSET 15.715958 -8.608795 -6.935905
								CHANNELS 3 Xrotation Yrotation Zrotation
								JOINT newVegas:Left_CapeC1
								{
									OFFSET 0.000000 -8.688499 0.000000
									CHANNELS 3 Xrotation Yrotation Zrotation
									End Site
									{
										OFFSET 0.000000 8.688499 0.000000
									}
								}
							}
						}
						JOINT newVegas:Left_CapeB
						{
							OFFSET 26.118385 -8.608795 -7.079235
							CHANNELS 3 Xrotation Yrotation Zrotation
							JOINT newVegas:Left_CapeB1
							{
								OFFSET 0.000000 -8.688499 0.000000
								CHANNELS 3 Xrotation Yrotation Zrotation
								End Site
								{
									OFFSET 0.000000 8.688499 0.000000
								}
							}
						}
						JOINT newVegas:Left_CapeA
						{
							OFFSET 5.115639 -8.608795 -10.395809
							CHANNELS 3 Xrotation Yrotation Zrotation
							JOINT newVegas:Left_CapeA1
							{
								OFFSET 0.000000 -8.688499 0.000000
								CHANNELS 3 Xrotation Yrotation Zrotation
								End Site
								{
									OFFSET 0.000000 8.688499 0.000000
								}
							}
						}
					}
				}
				JOINT newVegas:RightShoulder
				{
					OFFSET -15.263000 10.923401 -0.547700
					CHANNELS 3 Xrotation Yrotation Zrotation
					JOINT newVegas:RightArm
					{
						OFFSET -25.438599 -2.830597 -13.032500
						CHANNELS 3 Xrotation Yrotation Zrotation
						JOINT newVegas:RightForeArm
						{
							OFFSET -29.960503 0.000000 0.000000
							CHANNELS 3 Xrotation Yrotation Zrotation
							JOINT newVegas:RightHand
							{
								OFFSET -27.849251 0.000000 0.000000
								CHANNELS 3 Xrotation Yrotation Zrotation
								JOINT newVegas:RightHandThumb1
								{
									OFFSET -4.487587 -3.305161 6.305391
									CHANNELS 3 Xrotation Yrotation Zrotation
									JOINT newVegas:RightHandThumb2
									{
										OFFSET -5.480453 -3.164139 3.164143
										CHANNELS 3 Xrotation Yrotation Zrotation
										JOINT newVegas:RightHandThumb3
										{
											OFFSET -5.159721 -2.978973 2.978967
											CHANNELS 3 Xrotation Yrotation Zrotation
											End Site
											{
												OFFSET -2.494507 5.926697 1.738678
											}
										}
									}
								}
								JOINT newVegas:RightHandIndex1
								{
									OFFSET -18.578728 -0.527832 5.208049
									CHANNELS 3 Xrotation Yrotation Zrotation
									JOINT newVegas:RightHandIndex2
									{
										OFFSET -3.192009 0.000000 0.000000
										CHANNELS 3 Xrotation Yrotation Zrotation
										JOINT newVegas:RightHandIndex3
										{
											OFFSET -3.835129 0.000000 0.000000
											CHANNELS 3 Xrotation Yrotation Zrotation
											End Site
											{
												OFFSET 0.034599 3.816971 0.371180
											}
										}
									}
								}
								JOINT newVegas:RightHandMiddle1
								{
									OFFSET -18.476105 0.000000 0.000000
									CHANNELS 3 Xrotation Yrotation Zrotation
									JOINT newVegas:RightHandMiddle2
									{
										OFFSET -3.324875 0.000000 0.000000
										CHANNELS 3 Xrotation Yrotation Zrotation
										JOINT newVegas:RightHandMiddle3
										{
											OFFSET -4.596550 0.000000 0.000000
											CHANNELS 3 Xrotation Yrotation Zrotation
											End Site
											{
												OFFSET -0.057701 4.578827 0.399218
											}
										}
									}
								}
								JOINT newVegas:RightHandRing1
								{
									OFFSET -17.732719 0.121887 -4.201567
									CHANNELS 3 Xrotation Yrotation Zrotation
									JOINT newVegas:RightHandRing2
									{
										OFFSET -2.733170 0.000000 0.000000
										CHANNELS 3 Xrotation Yrotation Zrotation
										JOINT newVegas:RightHandRing3
										{
											OFFSET -3.178268 0.000000 0.000000
											CHANNELS 3 Xrotation Yrotation Zrotation
											End Site
											{
												OFFSET -0.119102 3.170624 0.185394
											}
										}
									}
								}
								JOINT newVegas:RightHandPinky1
								{
									OFFSET -15.989624 -0.606689 -7.535461
									CHANNELS 3 Xrotation Yrotation Zrotation
									JOINT newVegas:RightHandPinky2
									{
										OFFSET -2.538986 0.000000 0.000000
										CHANNELS 3 Xrotation Yrotation Zrotation
										JOINT newVegas:RightHandPinky3
										{
											OFFSET -2.593102 0.000000 0.000000
											CHANNELS 3 Xrotation Yrotation Zrotation
											End Site
											{
												OFFSET 0.150902 2.584198 0.152708
											}
										}
									}
								}
							}
							JOINT newVegas:Right_CapeC
							{
								OFFSET -15.715958 -8.608795 -6.935905
								CHANNELS 3 Xrotation Yrotation Zrotation
								JOINT newVegas:Right_CapeC1
								{
									OFFSET 0.000000 -8.688499 0.000000
									CHANNELS 3 Xrotation Yrotation Zrotation
									End Site
									{
										OFFSET 0.000000 8.688499 0.000000
									}
								}
							}
							JOINT newVegas:Right_Sleeve
							{
								OFFSET -0.267448 -0.649994 0.577675
								CHANNELS 3 Xrotation Yrotation Zrotation
								End Site
								{
									OFFSET 0.000000 15.991302 0.000000
								}
							}
						}
						JOINT newVegas:Right_CapeA
						{
							OFFSET -5.115540 -8.608795 -10.395824
							CHANNELS 3 Xrotation Yrotation Zrotation
							JOINT newVegas:Right_CapeA1
							{
								OFFSET 0.000000 -8.688499 0.000000
								CHANNELS 3 Xrotation Yrotation Zrotation
								End Site
								{
									OFFSET 0.000000 8.688499 0.000000
								}
							}
						}
						JOINT newVegas:Right_CapeB
						{
							OFFSET -26.118187 -8.608795 -7.079266
							CHANNELS 3 Xrotation Yrotation Zrotation
							JOINT newVegas:Right_CapeB1
							{
								OFFSET 0.000000 -8.688499 0.000000
								CHANNELS 3 Xrotation Yrotation Zrotation
								End Site
								{
									OFFSET 0.000000 8.688499 0.000000
								}
							}
						}
					}
				}
				JOINT newVegas:Left_Collar
				{
					OFFSET 18.625099 8.655502 8.828100
					CHANNELS 3 Xrotation Yrotation Zrotation
					JOINT newVegas:Left_Collar1
					{
						OFFSET 14.783401 10.540405 -1.259500
						CHANNELS 3 Xrotation Yrotation Zrotation
						End Site
						{
							OFFSET 0.000000 18.199875 0.000000
						}
					}
				}
				JOINT newVegas:Collar_Back
				{
					OFFSET 0.000000 15.630707 -20.132601
					CHANNELS 3 Xrotation Yrotation Zrotation
					End Site
					{
						OFFSET 0.000000 22.523010 0.000000
					}
				}
				JOINT newVegas:Left_Peck
				{
					OFFSET 17.239599 -5.132599 25.482599
					CHANNELS 3 Xrotation Yrotation Zrotation
					End Site
					{
						OFFSET 0.000000 22.523010 0.000000
					}
				}
				JOINT newVegas:Right_Peck
				{
					OFFSET -17.239599 -5.132202 25.482599
					CHANNELS 3 Xrotation Yrotation Zrotation
					End Site
					{
						OFFSET 0.000000 22.523010 0.000000
					}
				}
				JOINT newVegas:Right_Collar
				{
					OFFSET -18.625099 8.655792 8.828100
					CHANNELS 3 Xrotation Yrotation Zrotation
					JOINT newVegas:Right_Collar1
					{
						OFFSET -14.783401 10.539993 -1.259500
						CHANNELS 3 Xrotation Yrotation Zrotation
						End Site
						{
							OFFSET 0.000000 18.199631 0.000000
						}
					}
				}
			}
		}
		JOINT newVegas:Belly
		{
			OFFSET 0.000000 -6.540398 9.014299
			CHANNELS 3 Xrotation Yrotation Zrotation
			End Site
			{
				OFFSET 0.000000 11.566666 0.000000
			}
		}
	}
	JOINT newVegas:ElvisFacialAnim_Joint
	{
		OFFSET 1.000000 -95.330101 -8.825800
		CHANNELS 3 Xrotation Yrotation Zrotation
		End Site
		{
			OFFSET 0.000000 35.315800 0.000000
		}
	}
}
MOTION
Frames: 4
Frame Time: 0.016667
-10.495154 128.893738 -4.505270 9.942533 -12.121369 -1.092146 -0.000000 0.000001 -0.000000 -152.500994 -35.728361 24.650047 117.608208 -20.835957 -4.722224 44.185160 -25.816629 -7.009436 -0.000001 0.000000 0.000000 -0.000001 0.000001 0.000000 -68.819244 52.529820 -72.395060 128.425356 39.497816 6.431205 -0.805121 12.600311 54.708801 0.000000 0.000000 -0.000003 -0.000002 -0.000001 -0.000003 33.270948 6.853160 1.637705 7.016420 1.371150 0.932971 7.016131 1.356909 0.957106 3.203649 1.348335 0.823127 3.203652 1.348333 0.823123 -0.000000 0.000000 -0.000001 3.203668 1.348335 0.823119 3.203713 1.348339 0.823121 0.000001 0.000001 -0.000000 -0.000000 0.000000 -0.000001 0.333780 -3.623989 3.511466 -39.710952 20.403435 24.454229 -0.000001 -1.659871 0.000012 5.337926 -17.498069 -30.910468 -1.512199 3.683036 6.110830 3.939044 7.948698 0.746783 0.000003 -0.000002 -0.000003 0.033130 0.675968 -5.610574 0.032966 0.674436 -5.597737 -0.000004 -0.000001 -0.000002 0.069859 0.980273 -8.151093 0.078702 1.040177 -8.653167 -0.000000 -0.000002 -0.000000 0.141446 1.391199 -11.609547 0.158266 1.470732 -12.283656 -0.000003 0.000001 -0.000001 1.260521 5.698233 -14.444260 0.229468 -2.281942 -15.368554 0.000000 -0.000000 0.000002 0.000000 -0.000001 -0.000003 0.000000 -0.000001 -0.000003 -0.000000 -0.000001 -0.000003 0.000001 0.000001 0.000002 0.000002 0.000001 0.000000 0.000001 0.000001 0.000002 0.000000 0.000001 0.000002 -3.152576 -6.176011 -32.353534 -43.155317 11.870930 -9.722793 0.000004 13.107166 0.000001 11.026649 -9.558991 61.789942 -1.849257 -3.581799 -6.586149 4.637190 -8.634121 -0.225389 0.000002 0.000001 -0.000000 0.097303 -1.161574 9.577313 0.097315 -1.161578 9.577306 -0.000003 -0.000002 0.000001 0.734448 -4.504873 10.622724 0.142213 -1.401917 11.584701 -0.000003 -0.000001 0.000000 1.799546 -8.681480 12.425408 0.204358 -1.676591 13.897332 0.000001 -0.000001 0.000001 3.081996 -12.378822 14.479205 0.252511 -1.860354 15.457616 0.000000 0.000003 0.000001 0.000001 0.000006 -0.000000 0.000001 0.000004 -0.000000 0.000001 0.000006 -0.000000 -0.000002 -0.000003 -0.000001 -0.000002 -0.000003 -0.000001 -0.000002 -0.000003 -0.000001 -0.000002 -0.000003 -0.000001 0.000001 0.000000 -0.000000 0.000001 0.000000 -0.000000 0.000001 0.000000 -0.000000 0.000001 0.000000 -0.000000 0.000001 0.000000 -0.000000 0.000001 0.000000 -0.000000 0.000001 0.000000 -0.000000 -0.000001 0.000001 -0.000000 -0.000000 0.000001 -0.000000 
-10.247944 127.870461 -4.244671 10.346147 -11.684753 -0.421565 -0.000000 0.000000 0.000000 -152.354418 -33.106002 26.395848 117.777815 -19.065638 -6.115704 45.795285 -26.817812 -2.594480 -0.000001 0.000001 -0.000000 0.000001 0.000000 0.000001 -66.430912 50.808302 -72.910439 127.175281 38.836582 7.327615 -2.112106 11.800531 53.585593 0.000002 -0.000001 -0.000003 -0.000002 -0.000006 0.000003 32.883871 6.536559 1.015817 6.928085 1.411406 0.809339 6.927401 1.400736 0.834282 3.267576 1.309226 0.864657 3.267617 1.309225 0.864662 0.000001 0.000000 0.000001 3.267592 1.309232 0.864652 3.267618 1.309213 0.864662 0.000002 -0.000001 -0.000000 0.000001 0.000000 0.000001 0.260216 -3.373977 3.577372 -40.196049 20.677969 26.508060 -0.000005 -2.492639 0.000003 7.106741 -15.300558 -31.430598 -1.511001 3.682992 6.108661 3.939044 7.948704 0.746787 0.000001 0.000000 -0.000004 0.033125 0.675969 -5.610574 0.032966 0.674436 -5.597737 -0.000001 0.000000 -0.000000 0.069850 0.980273 -8.151093 0.078693 1.040177 -8.653163 0.000001 0.000001 0.000001 0.141440 1.391199 -11.609547 0.158272 1.470730 -12.283652 0.000001 -0.000001 0.000002 1.260515 5.698235 -14.444259 0.229465 -2.281939 -15.368556 -0.000002 -0.000003 0.000002 -0.000000 -0.000000 -0.000001 -0.000000 -0.000000 -0.000001 -0.000001 -0.000000 -0.000001 -0.000002 0.000001 -0.000001 -0.000002 -0.000000 -0.000004 -0.000002 0.000001 -0.000001 -0.000003 0.000001 -0.000001 -2.438248 -4.287071 -32.305555 -40.704038 7.760224 -13.687630 0.000002 15.033127 0.000001 9.217870 -10.057909 64.473509 -1.849249 -3.581801 -6.586149 4.637197 -8.634120 -0.225384 0.000005 0.000000 -0.000000 0.097302 -1.161575 9.577315 0.097309 -1.161581 9.577302 0.000000 0.000001 0.000002 0.734451 -4.504873 10.622729 0.142215 -1.401921 11.584697 -0.000000 0.000002 0.000001 1.799558 -8.681479 12.425408 0.204362 -1.676591 13.897330 -0.000002 0.000002 -0.000000 3.081998 -12.378821 14.479200 0.252510 -1.860348 15.457608 -0.000003 -0.000000 0.000000 -0.000000 0.000000 0.000001 -0.000001 -0.000000 0.000001 -0.000000 -0.000000 0.000003 -0.000001 0.000003 -0.000001 -0.000001 0.000003 0.000001 -0.000001 0.000003 -0.000001 -0.000001 0.000003 0.000002 -0.000003 0.000000 0.000000 -0.000003 0.000000 0.000000 -0.000003 0.000000 0.000000 -0.000003 0.000000 0.000000 -0.000003 0.000000 0.000000 -0.000003 0.000000 0.000000 -0.000003 0.000000 0.000000 -0.000002 -0.000000 -0.000000 -0.000000 0.000000 0.000000 
-9.982113 126.457260 -3.962231 10.314151 -11.698726 -0.201423 -0.000000 -0.000001 0.000000 -151.291613 -30.429029 27.255662 117.959853 -17.561270 -6.859313 47.118661 -25.381587 1.274535 0.000002 -0.000001 0.000001 -0.000001 0.000000 0.000000 -65.899052 48.908007 -70.671073 126.301713 37.753194 7.623850 -4.277380 10.665661 52.452776 0.000001 -0.000001 -0.000002 0.000002 0.000003 -0.000002 32.132099 6.479621 0.566867 6.762703 1.484584 0.721722 6.761549 1.477280 0.747488 3.226178 1.295542 0.857359 3.226158 1.295537 0.857354 0.000002 -0.000000 -0.000000 3.226180 1.295543 0.857359 3.226198 1.295544 0.857356 -0.000001 0.000000 -0.000000 0.000002 -0.000000 -0.000000 0.150306 -2.880988 3.833599 -39.803351 20.644054 27.958485 -0.000001 -3.001041 0.000002 7.784235 -14.020441 -32.303424 -1.509853 3.682954 6.106611 3.939047 7.948698 0.746789 -0.000000 0.000001 -0.000003 0.033125 0.675969 -5.610574 0.032962 0.674435 -5.597738 -0.000001 0.000000 0.000001 0.069858 0.980273 -8.151093 0.078697 1.040178 -8.653165 -0.000005 0.000000 -0.000000 0.141444 1.391196 -11.609546 0.158267 1.470731 -12.283658 0.000001 -0.000001 -0.000001 1.260519 5.698231 -14.444262 0.229471 -2.281944 -15.368556 0.000003 -0.000002 -0.000002 0.000000 0.000001 0.000004 0.000000 0.000001 0.000004 0.000000 0.000001 0.000004 -0.000000 -0.000002 -0.000003 0.000001 -0.000001 -0.000005 -0.000000 -0.000002 -0.000003 -0.000001 -0.000001 -0.000003 -1.787087 -2.322998 -32.141975 -38.691529 3.637148 -16.996661 0.000004 17.122620 0.000001 6.431854 -10.848098 65.605292 -1.849259 -3.581797 -6.586148 4.637190 -8.634116 -0.225387 -0.000001 0.000004 0.000002 0.097302 -1.161575 9.577318 0.097315 -1.161580 9.577302 0.000001 -0.000000 0.000001 0.734445 -4.504873 10.622729 0.142216 -1.401920 11.584699 -0.000001 -0.000001 0.000001 1.799550 -8.681480 12.425407 0.204359 -1.676587 13.897337 0.000000 -0.000001 0.000001 3.081991 -12.378823 14.479202 0.252509 -1.860347 15.457608 -0.000002 -0.000002 -0.000005 -0.000001 0.000001 -0.000000 -0.000002 0.000002 -0.000002 -0.000001 0.000000 0.000003 0.000002 0.000000 0.000000 0.000002 0.000001 -0.000000 0.000002 0.000000 0.000000 0.000002 0.000001 0.000001 0.000000 -0.000000 -0.000000 0.000000 -0.000000 -0.000000 0.000000 -0.000000 -0.000000 0.000000 -0.000000 -0.000000 0.000000 -0.000000 -0.000000 0.000000 -0.000000 -0.000000 0.000000 -0.000000 -0.000000 0.000000 -0.000000 -0.000000 -0.000000 -0.000001 0.000000 
-9.652424 124.717453 -3.761652 10.010312 -11.881381 -0.231170 -0.000000 -0.000000 0.000000 -149.484414 -27.807194 27.562364 118.144678 -16.179566 -7.072207 47.314780 -23.155598 3.953308 -0.000000 -0.000001 0.000000 0.000001 -0.000000 0.000002 -66.047123 46.828699 -66.941188 125.706763 36.406817 7.464794 -7.029562 9.075014 51.277399 -0.000001 0.000000 -0.000005 0.000000 0.000002 -0.000002 31.101382 6.603200 0.269815 6.538970 1.568813 0.665330 6.537237 1.564634 0.691662 3.142612 1.297385 0.834946 3.142607 1.297385 0.834937 0.000001 -0.000001 -0.000000 3.142618 1.297383 0.834942 3.142623 1.297379 0.834941 0.000001 0.000000 -0.000000 0.000001 -0.000001 0.000000 0.039206 -2.385780 4.168917 -38.968333 20.585633 29.044410 -0.000001 -3.374194 -0.000005 8.050763 -13.187925 -33.345902 -1.508770 3.682915 6.104656 3.939048 7.948698 0.746786 0.000003 -0.000002 -0.000005 0.033131 0.675969 -5.610576 0.032966 0.674436 -5.597737 -0.000003 0.000001 0.000001 0.069857 0.980274 -8.151093 0.078702 1.040178 -8.653162 0.000001 0.000000 -0.000001 0.141442 1.391197 -11.609548 0.158267 1.470733 -12.283655 0.000001 0.000001 -0.000000 1.260525 5.698230 -14.444260 0.229469 -2.281945 -15.368552 0.000001 -0.000002 -0.000001 -0.000000 -0.000001 -0.000005 -0.000000 -0.000001 -0.000005 -0.000000 -0.000001 -0.000005 0.000000 -0.000002 -0.000001 0.000001 -0.000002 -0.000003 0.000000 -0.000002 -0.000001 -0.000001 -0.000001 -0.000002 -1.195180 -0.396597 -31.763337 -37.135137 -0.211832 -19.628958 0.000003 19.145497 -0.000011 4.004380 -11.617239 66.067231 -1.849252 -3.581800 -6.586149 4.637197 -8.634117 -0.225383 0.000000 -0.000002 -0.000001 0.097305 -1.161573 9.577318 0.097309 -1.161578 9.577300 -0.000004 -0.000002 -0.000000 0.734450 -4.504873 10.622734 0.142219 -1.401919 11.584696 -0.000000 -0.000000 -0.000001 1.799552 -8.681475 12.425408 0.204356 -1.676590 13.897330 0.000001 0.000001 0.000001 3.081997 -12.378823 14.479210 0.252506 -1.860353 15.457608 0.000002 0.000003 -0.000001 0.000000 0.000001 0.000002 -0.000001 -0.000005 0.000004 0.000000 0.000001 0.000002 0.000001 0.000000 0.000004 0.000001 0.000001 0.000004 0.000001 0.000000 0.000004 0.000001 0.000001 0.000005 0.000005 -0.000001 0.000000 0.000005 -0.000001 0.000000 0.000005 -0.000001 0.000000 0.000005 -0.000001 0.000000 0.000005 -0.000001 0.000000 0.000005 -0.000001 0.000000 0.000005 -0.000001 0.000000 0.000001 0.000000 -0.000000 -0.000000 -0.000000 0.000000 
